<svg width="119" height="110" viewBox="0 0 119 110" fill="none" xmlns="http://www.w3.org/2000/svg">
<path d="M0 85.5556V67.2222H3.66667V85.5556H0Z" fill="#F72E5C"/>
<path d="M14.2999 85.5556V70.8889H10.6333V85.5556H6.96661V67.2222H17.9666V85.5556H14.2999Z" fill="#F72E5C"/>
<path d="M24.9334 74.5556H21.2667V67.2222H32.2667V70.8889H24.9334V74.5556ZM21.2667 85.5556V81.8889H28.6V78.2222H32.2667V85.5556H21.2667ZM28.6 78.2222H24.9334V74.5556H28.6V78.2222Z" fill="#F72E5C"/>
<path d="M35.5667 85.5556V67.2222H46.5667V78.2222H39.2333V85.5556H35.5667ZM42.9 74.5556V70.8889H39.2333V74.5556H42.9Z" fill="#F72E5C"/>
<path d="M49.8667 85.5556V67.2222H60.8667V70.8889H53.5333V74.5556H60.8667V78.2222H53.5333V81.8889H60.8667V85.5556H49.8667Z" fill="#F72E5C"/>
<path d="M64.1667 85.5556V67.2222H67.8333V74.5556H71.5V78.2222H67.8333V85.5556H64.1667ZM71.5 74.5556V67.2222H75.1667V74.5556H71.5ZM71.5 85.5556V78.2222H75.1667V85.5556H71.5Z" fill="#F72E5C"/>
<path d="M82.1333 85.5556V70.8889H78.4667V67.2222H89.4667V70.8889H85.8V85.5556H82.1333Z" fill="#F72E5C"/>
<path d="M92.7667 85.5556V67.2222H103.767V85.5556H92.7667ZM100.1 81.8889V70.8889H96.4333V81.8889H100.1Z" fill="#F72E5C"/>
<path d="M107.067 85.5556V67.2222H118.067V78.2222H114.4V81.8889H110.733V85.5556H107.067ZM114.4 74.5556V70.8889H110.733V74.5556H114.4ZM114.4 85.5556V81.8889H118.067V85.5556H114.4Z" fill="#F72E5C"/>
<path d="M17.7834 110V91.6667H28.7834V95.3333H21.4501V99H28.7834V110H17.7834ZM25.1167 106.333V102.667H21.4501V106.333H25.1167Z" fill="#F72E5C"/>
<path d="M39.4167 110V102.667H35.75V110H32.0833V91.6667H43.0833V110H39.4167ZM39.4167 99V95.3333H35.75V99H39.4167Z" fill="#F72E5C"/>
<path d="M46.3833 110V91.6667H53.7167V95.3333H57.3833V106.333H53.7167V95.3333H50.05V106.333H53.7167V110H46.3833Z" fill="#F72E5C"/>
<path d="M60.6833 110V91.6667H71.6833V95.3333H64.35V99H71.6833V110H60.6833ZM68.0167 106.333V102.667H64.35V106.333H68.0167Z" fill="#F72E5C"/>
<path d="M74.9833 110V91.6667H85.9833V95.3333H78.65V99H85.9833V102.667H78.65V106.333H85.9833V110H74.9833Z" fill="#F72E5C"/>
<path d="M92.95 110V95.3333H89.2833V91.6667H100.283V95.3333H96.6167V110H92.95Z" fill="#F72E5C"/>
<path d="M78.1 0L73.1806 1.34444L64.9 3.575L59.5222 5.04167L53.1972 6.78333L34.4972 11.825L31.5028 23.6194L39.1722 31.2889L44.9778 37.125L50.4778 31.5639L50.4472 24.5056L61.3556 13.5972L63.4639 15.675L62.6083 21.5111L65.725 24.6278L71.5611 23.7722L73.6389 25.8806L62.7306 36.7583L55.6417 36.7278L50.1417 42.2278L54.6028 46.7194L62.975 55.0917L74.8306 52.2194L76.2972 46.7194L78.0695 40.1806L81.9195 25.7889L83.6306 19.4639L86.5639 8.55556L78.1 0Z" fill="#F72E5C"/>
</svg>